<svg width="24" height="22" viewBox="0 0 24 22" fill="none" xmlns="http://www.w3.org/2000/svg">
<path d="M21.375 21.5H10.125C9.62772 21.5 9.15081 21.342 8.79918 21.0607C8.44754 20.7794 8.25 20.3978 8.25 20V17.75H10.125V20H21.375V2H10.125V4.25H8.25V2C8.25 1.60218 8.44754 1.22064 8.79918 0.93934C9.15081 0.658035 9.62772 0.5 10.125 0.5H21.375C21.8723 0.5 22.3492 0.658035 22.7008 0.93934C23.0525 1.22064 23.25 1.60218 23.25 2V20C23.25 20.3978 23.0525 20.7794 22.7008 21.0607C22.3492 21.342 21.8723 21.5 21.375 21.5Z" fill="#717171"/>
<path d="M10.6781 14.4425L14.0344 11.75H0.75V10.25H14.0344L10.6781 7.5575L12 6.5L17.625 11L12 15.5L10.6781 14.4425Z" fill="#717171"/>
</svg>
