<svg width="25" height="24" viewBox="0 0 25 24" fill="none" xmlns="http://www.w3.org/2000/svg">
<path d="M1.04169 0.041687C0.489402 0.041687 0.041687 0.489402 0.041687 1.04169C0.041687 1.59397 0.489402 2.04169 1.04169 2.04169V0.041687ZM5.20835 1.04169L6.18891 0.84543C6.09536 0.378072 5.68498 0.041687 5.20835 0.041687V1.04169ZM8.00002 14.9896L8.98086 14.7948L8.98057 14.7933L8.00002 14.9896ZM10.0834 16.6667V15.6667C10.077 15.6667 10.0706 15.6667 10.0642 15.6669L10.0834 16.6667ZM20.2084 16.6667L20.2275 15.6669C20.2211 15.6667 20.2147 15.6667 20.2084 15.6667V16.6667ZM22.2917 14.9896L23.2726 15.1844L23.274 15.1769L22.2917 14.9896ZM23.9584 6.25002L24.9407 6.43735C24.9965 6.1446 24.9188 5.8422 24.7288 5.61258C24.5389 5.38295 24.2564 5.25002 23.9584 5.25002V6.25002ZM6.25002 5.25002C5.69774 5.25002 5.25002 5.69774 5.25002 6.25002C5.25002 6.80231 5.69774 7.25002 6.25002 7.25002V5.25002ZM9.41669 21.875C9.41669 21.898 9.39804 21.9167 9.37503 21.9167V23.9167C10.5026 23.9167 11.4167 23.0026 11.4167 21.875H9.41669ZM9.37503 21.9167C9.35202 21.9167 9.33336 21.898 9.33336 21.875H7.33336C7.33336 23.0026 8.24744 23.9167 9.37503 23.9167V21.9167ZM9.33336 21.875C9.33336 21.852 9.35202 21.8334 9.37503 21.8334V19.8334C8.24744 19.8334 7.33336 20.7474 7.33336 21.875H9.33336ZM9.37503 21.8334C9.39804 21.8334 9.41669 21.852 9.41669 21.875H11.4167C11.4167 20.7474 10.5026 19.8334 9.37503 19.8334V21.8334ZM20.875 21.875C20.875 21.898 20.8564 21.9167 20.8334 21.9167V23.9167C21.9609 23.9167 22.875 23.0026 22.875 21.875H20.875ZM20.8334 21.9167C20.8103 21.9167 20.7917 21.898 20.7917 21.875H18.7917C18.7917 23.0026 19.7058 23.9167 20.8334 23.9167V21.9167ZM20.7917 21.875C20.7917 21.852 20.8103 21.8334 20.8334 21.8334V19.8334C19.7058 19.8334 18.7917 20.7474 18.7917 21.875H20.7917ZM20.8334 21.8334C20.8564 21.8334 20.875 21.852 20.875 21.875H22.875C22.875 20.7474 21.9609 19.8334 20.8334 19.8334V21.8334ZM1.04169 2.04169H5.20835V0.041687H1.04169V2.04169ZM4.2278 1.23794L7.01947 15.1859L8.98057 14.7933L6.18891 0.84543L4.2278 1.23794ZM7.01918 15.1844C7.16016 15.8942 7.54629 16.5318 8.10998 16.9855L9.36411 15.4276C9.16606 15.2682 9.03039 15.0442 8.98086 14.7948L7.01918 15.1844ZM8.10998 16.9855C8.67367 17.4393 9.37901 17.6804 10.1025 17.6665L10.0642 15.6669C9.80999 15.6717 9.56217 15.587 9.36411 15.4276L8.10998 16.9855ZM10.0834 17.6667H20.2084V15.6667H10.0834V17.6667ZM20.1892 17.6665C20.9127 17.6804 21.618 17.4393 22.1817 16.9855L20.9276 15.4276C20.7295 15.587 20.4817 15.6717 20.2275 15.6669L20.1892 17.6665ZM22.1817 16.9855C22.7454 16.5318 23.1315 15.8942 23.2725 15.1844L21.3108 14.7948C21.2613 15.0442 21.1256 15.2682 20.9276 15.4276L22.1817 16.9855ZM23.274 15.1769L24.9407 6.43735L22.9761 6.06269L21.3094 14.8023L23.274 15.1769ZM23.9584 5.25002H6.25002V7.25002H23.9584V5.25002Z" fill="#717171"/>
</svg>
