<svg width="17" height="23" viewBox="0 0 17 23" fill="none" xmlns="http://www.w3.org/2000/svg">
<path d="M8.5 2.125C9.27258 2.125 10.0278 2.3541 10.6702 2.78332C11.3126 3.21255 11.8133 3.82262 12.1089 4.53639C12.4046 5.25017 12.4819 6.03558 12.3312 6.79332C12.1805 7.55106 11.8084 8.24709 11.2621 8.79339C10.7158 9.33969 10.0198 9.71172 9.26207 9.86244C8.50433 10.0132 7.71892 9.93581 7.00514 9.64016C6.29137 9.3445 5.6813 8.84383 5.25207 8.20145C4.82285 7.55907 4.59375 6.80383 4.59375 6.03125C4.59375 4.99525 5.0053 4.00168 5.73786 3.26911C6.47043 2.53655 7.464 2.125 8.5 2.125ZM8.5 0.5625C7.41838 0.5625 6.36106 0.883237 5.46173 1.48415C4.56239 2.08506 3.86145 2.93917 3.44753 3.93845C3.03362 4.93773 2.92532 6.03732 3.13633 7.09815C3.34734 8.15898 3.86819 9.13342 4.63301 9.89824C5.39783 10.6631 6.37227 11.1839 7.4331 11.3949C8.49394 11.6059 9.59352 11.4976 10.5928 11.0837C11.5921 10.6698 12.4462 9.96886 13.0471 9.06952C13.648 8.17019 13.9688 7.11287 13.9688 6.03125C13.9688 4.58085 13.3926 3.18985 12.367 2.16426C11.3414 1.13867 9.9504 0.5625 8.5 0.5625Z" fill="#717171"/>
<path d="M16.3125 22.4375H14.75V18.5312C14.75 18.0183 14.649 17.5103 14.4527 17.0364C14.2563 16.5625 13.9686 16.1318 13.6059 15.7691C13.2432 15.4064 12.8125 15.1187 12.3386 14.9223C11.8647 14.726 11.3567 14.625 10.8438 14.625H6.15625C5.12025 14.625 4.12668 15.0366 3.39411 15.7691C2.66155 16.5017 2.25 17.4952 2.25 18.5312V22.4375H0.6875V18.5312C0.6875 17.0808 1.26367 15.6898 2.28926 14.6643C3.31485 13.6387 4.70585 13.0625 6.15625 13.0625H10.8438C12.2942 13.0625 13.6852 13.6387 14.7107 14.6643C15.7363 15.6898 16.3125 17.0808 16.3125 18.5312V22.4375Z" fill="#717171"/>
</svg>
